<?xml version="1.0" standalone="no"?>
<!DOCTYPE svg PUBLIC "-//W3C//DTD SVG 20010904//EN"
 "http://www.w3.org/TR/2001/REC-SVG-20010904/DTD/svg10.dtd">
<svg version="1.0" xmlns="http://www.w3.org/2000/svg"
 width="530.000000pt" height="530.000000pt" viewBox="0 0 530.000000 530.000000"
 preserveAspectRatio="xMidYMid meet">

<g transform="translate(0.000000,530.000000) scale(0.100000,-0.100000)"
fill="#000000" stroke="none">
<path d="M2425 5244 c-16 -2 -84 -11 -150 -20 -747 -99 -1447 -560 -1850
-1218 -525 -858 -508 -1959 43 -2786 118 -176 202 -280 337 -415 385 -384 873
-637 1408 -729 l37 -7 0 910 0 911 -332 2 -333 3 -3 377 -2 378 335 0 335 0 0
339 c0 187 5 375 11 418 57 421 280 686 664 790 95 26 111 27 335 27 213 0
439 -17 538 -41 l22 -5 0 -319 0 -319 -199 0 c-109 0 -222 -4 -251 -10 -131
-25 -234 -103 -288 -218 l-27 -57 -3 -302 -3 -303 360 0 c357 0 361 0 361 -20
0 -12 -25 -181 -55 -377 -30 -196 -55 -358 -55 -360 0 -2 -137 -3 -305 -3
l-305 0 0 -910 c0 -501 2 -910 4 -910 16 0 219 45 296 66 205 56 485 179 672
295 161 100 313 223 464 373 399 400 637 863 736 1432 30 175 33 615 5 792
-90 558 -324 1031 -707 1426 -410 423 -898 675 -1497 772 -93 15 -526 28 -598
18z"/>
</g>
</svg>
