<?xml version="1.0" standalone="no"?>
<!DOCTYPE svg PUBLIC "-//W3C//DTD SVG 20010904//EN"
 "http://www.w3.org/TR/2001/REC-SVG-20010904/DTD/svg10.dtd">
<svg version="1.0" xmlns="http://www.w3.org/2000/svg"
 width="682.000000pt" height="683.000000pt" viewBox="0 0 682.000000 683.000000"
 preserveAspectRatio="xMidYMid meet">

<g transform="translate(0.000000,683.000000) scale(0.100000,-0.100000)"
fill="#000000" stroke="none">
<path d="M3265 6794 c-22 -2 -98 -9 -170 -15 -341 -29 -750 -134 -1054 -271
-735 -331 -1313 -882 -1667 -1589 -332 -664 -438 -1411 -303 -2139 260 -1401
1372 -2495 2774 -2729 347 -58 686 -63 1033 -16 1299 179 2385 1101 2776 2355
265 852 183 1783 -227 2570 -164 314 -367 590 -617 840 -551 552 -1262 892
-2037 975 -141 15 -436 26 -508 19z m881 -1674 c256 -16 399 -50 565 -137 208
-109 381 -312 458 -538 73 -217 76 -262 76 -1205 0 -901 -2 -934 -60 -1134
-92 -318 -320 -553 -637 -659 -198 -66 -350 -76 -1173 -77 -827 0 -984 10
-1186 79 -198 67 -350 174 -469 333 -69 92 -99 146 -140 259 -76 206 -89 383
-89 1209 0 838 13 1006 93 1221 111 294 341 504 650 593 116 34 194 46 346 55
189 12 1383 12 1566 1z"/>
<path d="M2605 4779 c-147 -9 -241 -26 -341 -64 -95 -36 -152 -74 -231 -158
-106 -113 -158 -239 -185 -450 -19 -146 -19 -1568 0 -1714 27 -208 79 -336
182 -447 112 -120 232 -180 429 -213 115 -20 1402 -31 1656 -14 297 20 446 73
578 204 130 130 187 283 207 550 13 181 13 1356 0 1546 -19 274 -78 432 -209
559 -137 134 -281 184 -583 202 -188 11 -1309 11 -1503 -1z m1876 -327 c110
-57 151 -189 94 -301 -40 -80 -108 -121 -200 -121 -192 0 -295 230 -167 372
74 82 176 101 273 50z m-1008 -242 c157 -18 320 -77 446 -162 67 -46 187 -164
237 -234 65 -90 120 -208 151 -320 23 -86 27 -117 27 -244 0 -127 -4 -158 -27
-244 -50 -184 -138 -328 -280 -462 -388 -366 -995 -345 -1362 48 -358 382
-343 989 33 1350 175 168 380 256 641 276 18 2 78 -2 134 -8z"/>
<path d="M3265 3866 c-103 -20 -176 -51 -257 -109 -119 -86 -206 -212 -242
-353 -21 -80 -21 -229 0 -308 58 -224 239 -403 464 -457 71 -17 210 -17 280 0
179 43 341 172 420 335 89 183 89 369 0 552 -59 122 -162 225 -281 282 -134
63 -258 82 -384 58z"/>
</g>
</svg>
