<?xml version="1.0" standalone="no"?>
<!DOCTYPE svg PUBLIC "-//W3C//DTD SVG 20010904//EN"
 "http://www.w3.org/TR/2001/REC-SVG-20010904/DTD/svg10.dtd">
<svg version="1.0" xmlns="http://www.w3.org/2000/svg"
 width="512.000000pt" height="512.000000pt" viewBox="0 0 512.000000 512.000000"
 preserveAspectRatio="xMidYMid meet">

<g transform="translate(0.000000,512.000000) scale(0.100000,-0.100000)"
fill="#000000" stroke="none">
<path d="M2315 5109 c-800 -83 -1501 -518 -1927 -1196 -604 -960 -491 -2230
272 -3065 423 -463 951 -740 1585 -830 118 -17 511 -16 635 0 579 80 1097 337
1491 739 130 132 157 163 243 277 256 341 423 757 488 1211 17 118 17 512 0
630 -43 303 -122 561 -247 814 -134 268 -270 459 -483 674 -395 400 -889 649
-1457 733 -123 18 -478 26 -600 13z m970 -1424 c82 -21 172 -68 234 -122 l52
-45 67 17 c81 20 201 67 260 102 l44 25 -7 -23 c-24 -80 -118 -209 -192 -261
-24 -18 -40 -34 -33 -36 16 -6 156 27 230 54 35 13 66 21 68 19 14 -13 -186
-227 -252 -270 -22 -14 -23 -23 -29 -158 -11 -255 -73 -484 -193 -717 -86
-167 -177 -293 -304 -420 -230 -230 -505 -376 -834 -443 -96 -19 -141 -22
-336 -22 -196 1 -239 4 -330 23 -149 33 -267 74 -405 142 -179 87 -178 85 -23
86 208 1 357 37 539 130 48 25 108 60 134 79 45 32 47 34 24 38 -13 3 -50 10
-82 15 -178 33 -352 177 -419 347 l-16 40 107 0 c147 0 164 9 76 40 -213 75
-360 265 -390 504 -7 50 -6 53 11 46 61 -25 155 -54 196 -59 l46 -5 -71 72
c-150 151 -209 353 -162 555 12 49 44 131 59 149 1 2 58 -53 127 -120 224
-222 478 -364 784 -441 58 -15 296 -49 300 -44 2 2 -2 32 -7 67 -11 71 0 175
28 258 59 175 212 320 399 374 76 22 221 24 300 4z"/>
</g>
</svg>
